<svg xmlns="http://www.w3.org/2000/svg" xmlns:xlink="http://www.w3.org/1999/xlink" id="Layer_1" x="0px" y="0px" viewBox="0 0 1882 563" style="enable-background:new 0 0 1882 563;" xml:space="preserve">
<style type="text/css">.st0{fill:#fff}</style>
<path class="st0" d="M754.4,365.4c-6.6,3.3-21.5,6.8-40.8,6.8c-54.9,0-83.2-34.2-83.2-79.4c0-54.2,38.7-84.4,86.8-84.4  c18.6,0,32.8,3.8,39.1,7.1L749,244c-7.3-3.1-17.4-5.9-30.2-5.9c-28.5,0-50.7,17.2-50.7,52.6c0,31.8,18.9,51.9,50.9,51.9  c10.8,0,22.9-2.4,29.9-5.2L754.4,365.4z"></path>
<path class="st0" d="M887.9,310.9c0,42.2-29.9,61.5-60.8,61.5c-33.7,0-59.6-22.2-59.6-59.4c0-37.2,24.5-61.1,61.5-61.1  C864.3,252,887.9,276.3,887.9,310.9 M804.4,312.1c0,19.8,8.2,34.7,23.6,34.7c13.9,0,22.9-13.9,22.9-34.7c0-17.2-6.6-34.7-22.9-34.7  C810.8,277.5,804.4,295.1,804.4,312.1"></path>
<path class="st0" d="M911.7,291.4c0-14.4-0.5-26.6-0.9-36.8h31.1l1.6,15.8h0.7c4.7-7.3,16.5-18.4,35.6-18.4  c23.6,0,41.3,15.6,41.3,49.5v68.4h-35.8V306c0-14.9-5.2-25-18.2-25c-9.9,0-15.8,6.8-18.2,13.4c-0.9,2.1-1.4,5.7-1.4,9v66.5h-35.8  L911.7,291.4L911.7,291.4z"></path>
<path class="st0" d="M1055.5,369.9V281h-15.1v-26.4h15.1v-4.5c0-13.9,4.2-29.2,14.6-38.7c9-8.5,21.5-11.6,31.8-11.6  c8,0,14.1,0.9,19.1,2.4l-1.4,27.6c-3.1-0.9-6.8-1.6-11.6-1.6c-11.8,0-16.7,9.2-16.7,20.5v5.9h23.1V281h-22.9v88.9H1055.5z"></path>
<path class="st0" d="M1168.2,222.5c0,9.9-7.5,17.9-19.3,17.9c-11.3,0-18.9-8-18.6-17.9c-0.2-10.4,7.3-18.1,18.9-18.1  C1160.6,204.4,1167.9,212.2,1168.2,222.5 M1131.1,254.6h35.8v115.3h-35.8V254.6z"></path>
<path class="st0" d="M1309.1,202.5v133c0,13,0.5,26.6,0.9,34.4h-31.8l-1.7-17h-0.5c-7.3,13-21.2,19.6-36.1,19.6  c-27.3,0-49.3-23.3-49.3-59.2c-0.2-38.9,24-61.3,51.6-61.3c14.1,0,25.2,5,30.4,13h0.5v-62.5H1309.1z M1273.3,303.4  c0-1.9-0.2-4.5-0.5-6.4c-2.1-9.7-9.9-17.7-21-17.7c-16.3,0-24.8,14.6-24.8,32.8c0,19.6,9.7,31.8,24.5,31.8  c10.4,0,18.6-7.1,20.7-17.2c0.7-2.6,0.9-5.2,0.9-8.3V303.4z"></path>
<path class="st0" d="M1367.1,323.7c1.2,14.9,15.8,21.9,32.5,21.9c12.3,0,22.2-1.6,31.8-4.7l4.7,24.3c-11.8,4.7-26.2,7.1-41.7,7.1  c-39.1,0-61.5-22.6-61.5-58.7c0-29.2,18.2-61.5,58.2-61.5c37.2,0,51.4,29,51.4,57.5c0,6.1-0.7,11.5-1.2,14.1H1367.1z M1409.3,299.1  c0-8.7-3.8-23.3-20.3-23.3c-15.1,0-21.2,13.7-22.2,23.3H1409.3z"></path>
<path class="st0" d="M1463.4,291.4c0-14.4-0.5-26.6-0.9-36.8h31.1l1.7,15.8h0.7c4.7-7.3,16.5-18.4,35.6-18.4  c23.6,0,41.3,15.6,41.3,49.5v68.4H1537V306c0-14.9-5.2-25-18.2-25c-9.9,0-15.8,6.8-18.2,13.4c-0.9,2.1-1.4,5.7-1.4,9v66.5h-35.8  L1463.4,291.4L1463.4,291.4z"></path>
<path class="st0" d="M1685.2,367c-6.4,2.8-18.4,5.2-32.1,5.2c-37.2,0-61.1-22.6-61.1-58.9c0-33.7,23.1-61.3,66-61.3  c9.4,0,19.8,1.7,27.3,4.5l-5.7,26.6c-4.2-1.9-10.6-3.5-20-3.5c-18.9,0-31.1,13.4-30.9,32.3c0,21.2,14.1,32.3,31.6,32.3  c8.5,0,15.1-1.4,20.5-3.5L1685.2,367z"></path>
<path class="st0" d="M1736.2,323.7c1.2,14.9,15.8,21.9,32.5,21.9c12.3,0,22.2-1.6,31.8-4.7l4.7,24.3c-11.8,4.7-26.2,7.1-41.7,7.1  c-39.1,0-61.5-22.6-61.5-58.7c0-29.2,18.2-61.5,58.2-61.5c37.2,0,51.4,29,51.4,57.5c0,6.1-0.7,11.5-1.2,14.1H1736.2z M1778.4,299.1  c0-8.7-3.8-23.3-20.3-23.3c-15.1,0-21.2,13.7-22.2,23.3H1778.4z"></path>
<path class="st0" d="M271.7,394c-19.1-19.4-36.8-40.2-55.7-59.7c-37.4-38.7-75.4-76.8-113.1-115.2c-9.7-9.9-10.7-26.5-2.2-36.7  c9.8-11.6,27.2-13.7,40.6-4.8c21.5,14.2,42.9,28.6,64.4,42.7c26.2,17.2,52.7,34.2,78.8,51.5c5.3,3.5,8.8,3,13.6-1.2  c27.3-23.7,54.8-47.3,82.5-70.5c33.4-28.1,67.3-55.7,100.7-83.9c40.2-34,80.3-68.2,119.9-103c9.2-8,18.9-10.3,29.9-8.7  c18.6,2.7,28.3,26.7,16.2,42.1C637.6,59.1,626,70.2,615,81.7c-58.5,60.9-117.1,121.7-175.6,182.7c-36.5,38-72.9,76-109.2,114.1  c-5.4,5.7-9.6,12.7-15.7,17.5C309,400.3,277.2,399.6,271.7,394"></path>
<path class="st0" d="M442.2,110.9c-24.7-16.8-46-35-70.3-47.4C268.2,10.8,143.5,44.3,77.6,141C46,187.4,31.5,239,34.8,294.7  c6.7,112.5,85.5,204.2,193.6,224.3c110.7,20.6,223.7-46.3,260.5-153.1c12.3-35.8,18.3-72.2,13.6-110.1c-0.3-2.4,0-5.8,1.5-7.4  c7.2-7.3,14.9-14.1,22.4-21.1l4.3,1.2c1.4,19.4,4.5,38.8,3.9,58.1c-1.3,44.2-11.2,86.6-33.1,125.5C458.9,487.5,396,536.4,310,549.8  c-109.7,17.1-210.4-32-269.2-130.6C19.4,383.4,9,344.3,5.1,302.6C-5.8,183,63.6,77.9,157.8,33.2c41.9-19.9,86-27.9,132.7-23.9  c61.8,5.3,114.4,29.5,159.1,71.8c12.7,12,12.7,12.1,0,23.5C446.6,107.3,443.5,109.8,442.2,110.9"></path>
<g>
	<path class="st0" d="M668,468.4v-8.7l31.4,0v27.5c-4.8,3.8-9.8,6.7-14.9,8.7c-5.1,1.9-10.4,2.9-15.8,2.9c-7.3,0-13.9-1.6-19.8-4.7   c-5.9-3.1-10.4-7.6-13.5-13.5c-3-5.9-4.5-12.5-4.5-19.7c0-7.2,1.5-13.9,4.5-20.2c3-6.2,7.3-10.9,13-13.9c5.7-3,12.2-4.5,19.5-4.5   c5.4,0,10.2,0.9,14.5,2.6c4.3,1.7,7.7,4.1,10.2,7.2c2.5,3.1,4.3,7.1,5.6,12.1l-8.8,2.4c-1.1-3.8-2.5-6.7-4.1-8.9   c-1.7-2.2-4-3.9-7.1-5.2c-3.1-1.3-6.5-1.9-10.2-1.9c-4.5,0-8.4,0.7-11.6,2c-3.3,1.4-5.9,3.2-7.9,5.4c-2,2.2-3.6,4.7-4.7,7.3   c-1.9,4.6-2.8,9.5-2.8,14.9c0,6.6,1.1,12.1,3.4,16.6s5.6,7.7,9.9,9.9c4.3,2.2,9,3.2,13.8,3.2c4.2,0,8.4-0.8,12.4-2.4   s7.1-3.4,9.2-5.2v-13.8L668,468.4L668,468.4z"></path>
	<path class="st0" d="M752.1,480.1l9.4,1.2c-1.5,5.5-4.2,9.7-8.2,12.8c-4,3-9.1,4.5-15.4,4.5c-7.8,0-14.1-2.4-18.7-7.2   c-4.6-4.8-6.9-11.6-6.9-20.3c0-9,2.3-16,7-21c4.6-5,10.7-7.5,18.1-7.5c7.2,0,13,2.4,17.6,7.3c4.5,4.9,6.8,11.8,6.8,20.6   c0,0.5,0,1.3-0.1,2.4h-40c0.3,5.9,2,10.4,5,13.5c3,3.1,6.7,4.7,11.2,4.7c3.3,0,6.2-0.9,8.5-2.6C748.9,486.8,750.8,484,752.1,480.1z    M722.3,465.4h30c-0.4-4.5-1.5-7.9-3.4-10.2c-2.9-3.5-6.7-5.3-11.3-5.3c-4.2,0-7.7,1.4-10.5,4.2C724.2,457,722.6,460.8,722.3,465.4   z"></path>
	<path class="st0" d="M795.6,489.3l1.3,8c-2.6,0.5-4.8,0.8-6.9,0.8c-3.3,0-5.9-0.5-7.7-1.6c-1.8-1-3.1-2.4-3.8-4.1   c-0.7-1.7-1.1-5.3-1.1-10.7v-30.9h-6.7v-7.1h6.7v-13.3l9-5.5v18.7h9.1v7.1h-9.1v31.4c0,2.6,0.2,4.3,0.5,5c0.3,0.7,0.8,1.3,1.6,1.8   c0.7,0.4,1.8,0.7,3.1,0.7C792.6,489.6,793.9,489.5,795.6,489.3z"></path>
	<path class="st0" d="M848.7,497.4l-16.4-53.6h9.4l8.5,31l3.2,11.5c0.1-0.6,1.1-4.3,2.8-11.1l8.5-31.4h9.3l8,31.1l2.7,10.3l3.1-10.4   l9.2-31h8.8l-16.8,53.6h-9.4l-8.5-32.1l-2.1-9.1l-10.9,41.3L848.7,497.4L848.7,497.4z"></path>
	<path class="st0" d="M912.9,470.6c0-9.9,2.8-17.3,8.3-22.1c4.6-4,10.2-6,16.9-6c7.4,0,13.4,2.4,18.1,7.2c4.7,4.8,7,11.5,7,20   c0,6.9-1,12.3-3.1,16.3c-2.1,4-5.1,7-9,9.2c-4,2.2-8.3,3.3-13,3.3c-7.5,0-13.6-2.4-18.2-7.2C915.2,486.6,912.9,479.6,912.9,470.6z    M922.3,470.6c0,6.9,1.5,12,4.5,15.4c3,3.4,6.8,5.1,11.3,5.1c4.5,0,8.3-1.7,11.3-5.2c3-3.4,4.5-8.7,4.5-15.7   c0-6.6-1.5-11.7-4.5-15.1c-3-3.4-6.8-5.1-11.2-5.1c-4.5,0-8.3,1.7-11.3,5.1C923.8,458.6,922.3,463.7,922.3,470.6z"></path>
	<path class="st0" d="M976.5,497.4v-53.6h8.2v8.1c2.1-3.8,4-6.3,5.8-7.5s3.7-1.8,5.8-1.8c3.1,0,6.2,1,9.3,2.9l-3.1,8.4   c-2.2-1.3-4.4-2-6.7-2c-2,0-3.8,0.6-5.4,1.8c-1.6,1.2-2.7,2.9-3.4,5c-1,3.2-1.5,6.8-1.5,10.6v28.1L976.5,497.4L976.5,497.4z"></path>
	<path class="st0" d="M1013.9,497.4v-74h9.1v42.2l21.5-21.8h11.8l-20.5,19.9l22.6,33.7h-11.2l-17.7-27.4l-6.4,6.2v21.3L1013.9,497.4   L1013.9,497.4z"></path>
	<path class="st0" d="M1134.7,497.4v-6.8c-3.4,5.3-8.4,8-15,8c-4.3,0-8.2-1.2-11.8-3.5s-6.4-5.6-8.3-9.9s-3-9.1-3-14.6   c0-5.4,0.9-10.2,2.7-14.6c1.8-4.4,4.5-7.7,8-10c3.6-2.3,7.6-3.5,12-3.5c3.2,0,6.1,0.7,8.6,2c2.5,1.4,4.6,3.1,6.2,5.3v-26.6h9v74   L1134.7,497.4L1134.7,497.4z M1106,470.6c0,6.9,1.4,12,4.3,15.4c2.9,3.4,6.3,5.1,10.3,5.1c4,0,7.3-1.6,10.1-4.9   c2.8-3.2,4.2-8.2,4.2-14.9c0-7.3-1.4-12.7-4.2-16.2s-6.3-5.2-10.5-5.2c-4,0-7.4,1.6-10.1,5C1107.3,458.3,1106,463.5,1106,470.6z"></path>
	<path class="st0" d="M1156.8,470.6c0-9.9,2.8-17.3,8.3-22.1c4.6-4,10.2-6,16.9-6c7.4,0,13.4,2.4,18.1,7.2c4.7,4.8,7,11.5,7,20   c0,6.9-1,12.3-3.1,16.3c-2.1,4-5.1,7-9,9.2c-4,2.2-8.3,3.3-13,3.3c-7.5,0-13.6-2.4-18.2-7.2   C1159.2,486.6,1156.8,479.6,1156.8,470.6z M1166.2,470.6c0,6.9,1.5,12,4.5,15.4c3,3.4,6.8,5.1,11.3,5.1c4.5,0,8.3-1.7,11.3-5.2   c3-3.4,4.5-8.7,4.5-15.7c0-6.6-1.5-11.7-4.5-15.1c-3-3.4-6.8-5.1-11.2-5.1c-4.5,0-8.3,1.7-11.3,5.1   C1167.7,458.6,1166.2,463.7,1166.2,470.6z"></path>
	<path class="st0" d="M1220.5,497.4v-53.6h8.2v7.6c3.9-5.9,9.6-8.8,17.1-8.8c3.2,0,6.2,0.6,8.9,1.7c2.7,1.2,4.7,2.7,6.1,4.6   c1.3,1.9,2.3,4.1,2.8,6.7c0.3,1.7,0.5,4.6,0.5,8.8v33h-9.1v-32.6c0-3.7-0.4-6.5-1.1-8.3c-0.7-1.8-2-3.3-3.8-4.4   c-1.8-1.1-3.9-1.6-6.3-1.6c-3.9,0-7.2,1.2-10,3.7c-2.8,2.5-4.2,7.1-4.2,14v29.3L1220.5,497.4L1220.5,497.4z"></path>
	<path class="st0" d="M1317.6,480.1l9.4,1.2c-1.5,5.5-4.2,9.7-8.2,12.8c-4,3-9.1,4.5-15.4,4.5c-7.8,0-14.1-2.4-18.7-7.2   c-4.6-4.8-6.9-11.6-6.9-20.3c0-9,2.3-16,7-21c4.6-5,10.7-7.5,18.1-7.5c7.2,0,13,2.4,17.6,7.3c4.5,4.9,6.8,11.8,6.8,20.6   c0,0.5,0,1.3-0.1,2.4h-40c0.3,5.9,2,10.4,5,13.5c3,3.1,6.7,4.7,11.2,4.7c3.3,0,6.2-0.9,8.5-2.6   C1314.3,486.8,1316.2,484,1317.6,480.1z M1287.7,465.4h30c-0.4-4.5-1.5-7.9-3.4-10.2c-2.9-3.5-6.7-5.3-11.3-5.3   c-4.2,0-7.7,1.4-10.5,4.2C1289.6,457,1288,460.8,1287.7,465.4z"></path>
	<path class="st0" d="M1372.6,497.4v-53.6h8.2v8.1c2.1-3.8,4-6.3,5.8-7.5s3.7-1.8,5.8-1.8c3.1,0,6.2,1,9.3,2.9l-3.1,8.4   c-2.2-1.3-4.4-2-6.7-2c-2,0-3.8,0.6-5.4,1.8c-1.6,1.2-2.7,2.9-3.4,5c-1,3.2-1.5,6.8-1.5,10.6v28.1L1372.6,497.4L1372.6,497.4z"></path>
	<path class="st0" d="M1410,433.8v-10.5h9.1v10.5H1410z M1410,497.4v-53.6h9.1v53.6L1410,497.4L1410,497.4z"></path>
	<path class="st0" d="M1434.1,501.9l8.8,1.3c0.4,2.7,1.4,4.7,3.1,6c2.3,1.7,5.3,2.5,9.2,2.5c4.2,0,7.5-0.8,9.7-2.5   c2.3-1.7,3.8-4,4.6-7.1c0.5-1.9,0.7-5.7,0.7-11.7c-4,4.7-8.9,7-14.8,7c-7.4,0-13.1-2.7-17.1-8c-4-5.3-6.1-11.7-6.1-19.1   c0-5.1,0.9-9.8,2.8-14.2c1.9-4.3,4.5-7.7,8.1-10s7.7-3.5,12.4-3.5c6.3,0,11.5,2.6,15.7,7.7v-6.5h8.4v46.4c0,8.4-0.9,14.3-2.6,17.8   s-4.4,6.2-8.1,8.3s-8.2,3-13.6,3c-6.4,0-11.6-1.4-15.5-4.3S1433.9,507.6,1434.1,501.9z M1441.6,469.6c0,7,1.4,12.2,4.2,15.4   s6.3,4.8,10.5,4.8c4.2,0,7.7-1.6,10.5-4.8c2.8-3.2,4.2-8.3,4.2-15.1c0-6.6-1.5-11.5-4.4-14.8c-2.9-3.3-6.4-5-10.5-5   c-4,0-7.5,1.6-10.3,4.9S1441.6,463.2,1441.6,469.6z"></path>
	<path class="st0" d="M1496.1,497.4v-74h9.1v26.6c4.2-4.9,9.6-7.4,16.1-7.4c4,0,7.4,0.8,10.4,2.3c2.9,1.6,5,3.7,6.3,6.5   c1.3,2.8,1.9,6.8,1.9,12v34h-9.1v-34c0-4.5-1-7.9-3-9.9c-2-2.1-4.8-3.1-8.4-3.1c-2.7,0-5.2,0.7-7.6,2.1s-4.1,3.3-5.1,5.7   c-1,2.4-1.5,5.7-1.5,9.9v29.3L1496.1,497.4L1496.1,497.4z"></path>
	<path class="st0" d="M1576.2,489.3l1.3,8c-2.6,0.5-4.8,0.8-6.9,0.8c-3.3,0-5.9-0.5-7.7-1.6c-1.8-1-3.1-2.4-3.8-4.1   c-0.7-1.7-1.1-5.3-1.1-10.7v-30.9h-6.7v-7.1h6.7v-13.3l9-5.5v18.7h9.1v7.1h-9.1v31.4c0,2.6,0.2,4.3,0.5,5c0.3,0.7,0.8,1.3,1.6,1.8   c0.7,0.4,1.8,0.7,3.1,0.7C1573.2,489.6,1574.6,489.5,1576.2,489.3z"></path>
</g>
<path class="st0" d="M1858.1,243.2c-5.2,5.2-11.4,7.8-18.7,7.8c-7.3,0-13.6-2.6-18.7-7.8c-5.1-5.2-7.7-11.4-7.7-18.8  c0-7.3,2.6-13.5,7.8-18.7c5.1-5.1,11.4-7.7,18.6-7.7c7.3,0,13.6,2.6,18.7,7.7c5.2,5.1,7.8,11.4,7.8,18.7  C1865.9,231.8,1863.3,238.1,1858.1,243.2z M1823.3,208.4c-4.4,4.4-6.6,9.8-6.6,16.1c0,6.3,2.2,11.8,6.6,16.2  c4.4,4.5,9.8,6.7,16.1,6.7c6.3,0,11.7-2.2,16.1-6.7c4.4-4.5,6.6-9.9,6.6-16.2c0-6.3-2.2-11.7-6.6-16.1c-4.4-4.5-9.8-6.7-16.1-6.7  C1833.1,201.7,1827.7,203.9,1823.3,208.4z M1838.9,209.9c3.6,0,6.2,0.3,7.9,1c3,1.3,4.5,3.7,4.5,7.4c0,2.6-0.9,4.5-2.8,5.7  c-1,0.6-2.4,1.1-4.2,1.4c2.3,0.4,3.9,1.3,5,2.8c1.1,1.5,1.6,3,1.6,4.5v2.1c0,0.7,0,1.4,0.1,2.2c0,0.8,0.1,1.3,0.3,1.5l0.2,0.4h-4.8  c0-0.1,0-0.2-0.1-0.3c0-0.1,0-0.2-0.1-0.3l-0.1-0.9v-2.3c0-3.4-0.9-5.6-2.7-6.6c-1.1-0.6-3-0.9-5.7-0.9h-4v11.4h-5.1v-29.1H1838.9z   M1844.4,214.4c-1.3-0.7-3.4-1.1-6.2-1.1h-4.4v10.5h4.6c2.2,0,3.8-0.2,4.9-0.6c2-0.8,3-2.3,3-4.5  C1846.3,216.6,1845.7,215.2,1844.4,214.4z"></path>
</svg>